<?xml version="1.0" encoding="utf-8"?>
<!-- Generator: Adobe Illustrator 16.0.0, SVG Export Plug-In . SVG Version: 6.00 Build 0)  -->
<!DOCTYPE svg PUBLIC "-//W3C//DTD SVG 1.1//EN" "http://www.w3.org/Graphics/SVG/1.1/DTD/svg11.dtd">
<svg version="1.1" id="Layer_1" xmlns="http://www.w3.org/2000/svg" xmlns:xlink="http://www.w3.org/1999/xlink" x="0px" y="0px"
	 width="52.515px" height="52.375px" viewBox="0 0 52.515 52.375" enable-background="new 0 0 52.515 52.375" xml:space="preserve">
<g>
	<path fill="#FFFFFF" d="M0,0h14.827c4.705,0,8.702,0.933,11.244,2.779c2.881,2.092,3.89,5.008,4.009,8.389
		c0.111,3.142-1.245,5.683-3.199,7.273c-1.724,1.403-3.514,2.392-6.289,2.945l10.553,21.958h-9.958L10.729,20.871
		c1.821,0.053,5.407,0.072,8.071-2.371c1.708-1.566,2.613-3.968,2.585-7.652c-0.025-3.276-0.913-5.543-3.301-7.024
		c-1.915-1.188-5.054-0.982-8.711-0.965H8.882v29.382c0,4.058,1.26,7.438,3.3,10.068c3.4,4.385,8.968,6.689,14.481,6.584
		c2.746-0.053,5.477-0.707,7.921-1.92c1.663-0.824,3.193-1.877,4.503-3.205l0.394-0.438h-4.687L24.093,21.609
		c5.573-0.944,9.621-5.375,9.398-11.122C33.239,3.961,29.42,1.159,22.993,0h4.081c4.051,0,7.83,0.654,10.497,2.823
		c2.235,1.818,3.394,3.349,3.757,7.317c0.292,3.188-0.558,6.112-2.681,8.167c-1.273,1.233-2.61,2.218-4.989,2.819l8.909,17.188
		l0.092-0.248c0.625-1.75,0.973-3.604,0.973-5.734V0h8.883l-0.014,36.537c-2.172,4.646-6.028,9.748-10.902,12.353
		c-4.437,2.37-9.718,3.666-15.34,3.465c-6.588,0-12.388-1.752-17.073-4.748c-3.882-2.482-7-7.015-9.169-10.912L0,0L0,0z"/>
</g>
</svg>
